# Blender v2.79 (sub 0) OBJ File: 'Sheath.blend'
# www.blender.org
mtllib Sheath.mtl
g Sheath_3_Sheathed_Master_Sword
v -383.387634 19.687874 22.140728
v 3990.502197 19.687868 47.140728
v -459.749176 -308.443542 -52.859322
v 3990.502197 -242.817261 -52.859310
v -383.387634 19.687897 -127.859268
v 3990.502197 282.193024 -52.859226
v -459.749176 347.819336 -52.859215
v 3990.502197 19.687902 -152.859268
v 4871.989258 129.065033 -52.859249
v 4871.989258 -89.689262 -52.859287
v 735.611816 276.493622 -75.570297
v 1457.350952 276.493622 -75.570282
v 735.611816 -237.061768 -75.570282
v 1457.350952 -237.061768 -75.570251
v 735.611816 19.715935 -164.292023
v 1457.350952 19.715935 -164.292007
vt 0.488816 0.171320
vt 0.490546 0.700045
vt 0.226563 0.699722
vt -0.037422 0.700045
vt -0.035522 0.171320
vt 0.226563 0.699722
vt -0.000481 0.987821
vt 0.500000 -0.012092
vt 0.500000 0.987821
vt 1.000482 0.987821
vt -0.000482 -0.012092
vt 1.000481 -0.012092
vt 0.021153 1.001158
vt 0.038732 0.250953
vt 0.500000 0.998093
vt 0.975881 0.250953
vt 0.978847 1.001158
vt 0.500001 0.249398
vt 0.500000 0.998093
vt 0.500001 0.249398
vt 0.550083 0.860587
vt 0.493661 0.852778
vt 0.524394 0.843252
vt 0.550083 0.860587
vn 0.0617 0.3553 0.9327
vn 0.0617 -0.3553 0.9327
vn 0.1127 -0.0000 0.9936
vn 0.0617 0.3553 -0.9327
vn 0.0617 -0.3553 -0.9327
vn 0.1127 0.0000 -0.9936
vn 0.0000 0.3266 -0.9452
vn 0.0000 -0.3266 -0.9452
vn 0.0033 -0.2235 0.9747
vn 0.0033 0.2235 0.9747
vn -0.0053 0.3560 0.9345
vn -0.0053 -0.3560 0.9345
vn 0.0033 -0.2235 -0.9747
vn 0.0033 0.2235 -0.9747
vn -0.0053 0.3560 -0.9345
vn -0.0053 -0.3560 -0.9345
vn -0.9740 -0.2267 -0.0000
vn -0.9740 0.2267 0.0000
usemtl None
s off
f 9/1/1 6/2/1 2/3/1
f 4/4/2 10/5/2 2/3/2
f 2/3/3 10/5/3 9/1/3
f 9/1/4 8/6/4 6/2/4
f 4/4/5 8/6/5 10/5/5
f 8/6/6 9/1/6 10/5/6
usemtl None_Goron_Symbol.png
f 11/7/7 16/8/7 15/9/7
f 16/8/8 13/10/8 15/9/8
f 11/7/7 12/11/7 16/8/7
f 16/8/8 14/12/8 13/10/8
usemtl None_Top.png
f 3/13/9 4/14/9 1/15/9
f 6/16/10 7/17/10 1/15/10
f 2/18/11 6/16/11 1/15/11
f 2/18/12 1/15/12 4/14/12
f 3/13/13 5/19/13 4/14/13
f 6/16/14 5/19/14 7/17/14
f 8/20/15 5/19/15 6/16/15
f 8/20/16 4/14/16 5/19/16
f 7/21/17 5/22/17 1/23/17
f 1/23/18 5/22/18 3/24/18
